<?xml version="1.0" ?><!DOCTYPE svg  PUBLIC '-//W3C//DTD SVG 1.1//EN'  'http://www.w3.org/Graphics/SVG/1.1/DTD/svg11.dtd'><svg enable-background="new 0 0 66 66" id="Layer_1" version="1.1" viewBox="0 0 66 66" xml:space="preserve" xmlns="http://www.w3.org/2000/svg" xmlns:xlink="http://www.w3.org/1999/xlink"><g><path d="M60.1,1c-2.6,0-4.7,2.1-4.7,4.7c0,1,0.3,1.9,0.9,2.7L43.4,21.3c-4-2.9-8.9-4.6-14.2-4.6C15.9,16.6,5,27.5,5,40.8   c0,5.3,1.7,10.3,4.7,14.3l-8.2,8.2c-0.4,0.4-0.4,1,0,1.4c0.4,0.4,1,0.4,1.4,0l8-8.1c4.4,5.1,11,8.4,18.3,8.4   C51.4,65,62,37.2,45,22.5L57.8,9.7c0.7,0.4,1.5,0.7,2.3,0.7c2.6,0,4.7-2.1,4.7-4.7C64.8,3.1,62.7,1,60.1,1z M8.5,48.7   c0.2,0,0.4,0,0.7,0c15.5,0,29.2-11.1,32.5-26.2c1.7,1.1,3.2,2.5,4.5,4.1C45,34.8,40.7,42.1,34,47.1c-6.7,5-14.9,7.2-23.2,6   C9.8,51.7,9.1,50.2,8.5,48.7z M15.8,23.2c1.5-1.1,3.1-2.1,4.8-2.8c-1.3,3.7-1.9,7.5-1.9,11.5c0,4.3,0.8,8.5,2.2,12.4   c-1.7,0.7-3.5,1.3-5.4,1.7C14.7,43.5,12.4,34.9,15.8,23.2z M36.5,30.4c-0.6-2-1.2-5.6-0.5-10.7c1.3,0.4,2.6,1,3.8,1.6   C39.2,24.5,38.1,27.6,36.5,30.4z M35.2,32.6c-1.4,2.1-3.1,4-4.9,5.7c-0.9-3.1-1.4-6.4-1.4-9.8c0-3.4,0.5-6.7,1.5-9.9   c1.3,0.1,2.5,0.2,3.7,0.5C33,26.5,34.5,31,35.2,32.6z M28.6,39.7c-1.8,1.5-3.8,2.7-5.9,3.8c-1.4-3.7-2.1-7.6-2.1-11.6   c0-4.3,0.8-8.4,2.3-12.4c1.7-0.5,3.5-0.8,5.3-0.9c-0.9,3.2-1.4,6.5-1.4,9.9C26.9,32.4,27.5,36.1,28.6,39.7z M13.1,25.6   c-2.3,10.4-0.5,18,0.4,20.8c-1.9,0.3-3.8,0.4-5.7,0.3C7.3,44.8,7,42.8,7,40.8C7,34.9,9.3,29.6,13.1,25.6z M12.4,55.3   c0.9,0.1,1.9,0.1,2.8,0.1c7.2,0,14.1-2.3,19.9-6.7c6.6-5,11-12,12.6-20c1.4,2.1,2.4,4.4,3,7C47,51,32.4,61,16.7,59.1   C15.1,58.1,13.7,56.8,12.4,55.3z M39.2,55.6c1.1,1,2.3,1.9,3.6,2.7c-1.5,1.2-3.2,2.2-5,2.9c-1.4-0.8-2.7-1.7-4-2.7   C35.7,57.8,37.5,56.8,39.2,55.6z M20.9,61.4c3.7,0,7.4-0.7,10.8-1.9c1.2,1,2.4,1.9,3.7,2.7c-1.9,0.6-4,0.9-6.1,0.9   C26.3,63,23.5,62.4,20.9,61.4z M44.4,57c-1.2-0.8-2.4-1.6-3.5-2.6c2-1.6,3.8-3.4,5.5-5.3c0.8,0.5,1.9,1,3,1   C48.2,52.7,46.5,55,44.4,57z M50,48.6l0-0.5c-0.9,0.1-1.7-0.3-2.4-0.7c1.5-2.2,2.8-4.5,3.8-7.1c0,0.1,0,0.3,0,0.4   C51.4,43.6,50.9,46.2,50,48.6z M60.1,8.4c-1.3,0-2.7-1.2-2.7-2.7c0-1.5,1.2-2.7,2.7-2.7c1.5,0,2.7,1.2,2.7,2.7   C62.8,7.2,61.6,8.4,60.1,8.4z"/></g></svg>